<svg width="10" height="8" viewBox="0 0 10 8" fill="none" xmlns="http://www.w3.org/2000/svg">
<path fill-rule="evenodd" clip-rule="evenodd" d="M8.75 7.68291H2.08333C1.85321 7.68291 1.66667 7.5005 1.66667 7.27548C1.66667 7.05047 1.85321 6.86805 2.08333 6.86805H8.75C8.98012 6.86805 9.16667 6.68564 9.16667 6.46062V2.72041L7.39583 3.8164C7.19313 4.0084 6.90481 4.08704 6.62974 4.02535C6.35466 3.96366 6.13021 3.77002 6.03333 3.51083L5 1.31885L3.95417 3.53527C3.84718 3.79047 3.61189 3.97268 3.33333 4.01604C3.06754 4.06467 2.79414 3.98416 2.6 3.8001L0.833333 2.72041V7.27548C0.833333 7.5005 0.646785 7.68291 0.416667 7.68291C0.186548 7.68291 9.16469e-09 7.5005 9.16469e-09 7.27548V2.72041C-4.49438e-05 2.42331 0.165285 2.14973 0.431461 2.00645C0.697636 1.86317 1.02247 1.8729 1.27917 2.03186L3.09167 3.15636C3.12592 3.17766 3.1568 3.20374 3.18333 3.23378L4.24583 0.984761C4.38223 0.696617 4.67737 0.512184 5.00208 0.512184C5.3268 0.512184 5.62194 0.696617 5.75833 0.984761L6.80417 3.20118C6.82917 3.17266 6.875 3.17673 6.90833 3.15636L8.72083 2.03593C8.97753 1.87698 9.30236 1.86724 9.56854 2.01052C9.83471 2.1538 10 2.42738 10 2.72449V6.46062C10 7.13567 9.44036 7.68291 8.75 7.68291Z" fill="#3E2AD1"/>
</svg>
