<svg width="12" height="12" viewBox="0 0 12 12" fill="none" xmlns="http://www.w3.org/2000/svg">
<path fill-rule="evenodd" clip-rule="evenodd" d="M5.00136 6.48H3.50383C3.22814 6.48 3.00465 6.25651 3.00465 5.98082C3.00465 5.70513 3.22814 5.48164 3.50383 5.48164H5.00136C5.27704 5.48164 5.50053 5.70513 5.50053 5.98082C5.50053 6.25651 5.27704 6.48 5.00136 6.48ZM9.3493 10.9726C9.49732 10.8727 9.58082 10.7015 9.56834 10.5233C9.55586 10.3452 9.4493 10.1873 9.2888 10.109C9.1283 10.0308 8.93824 10.0441 8.79022 10.144C6.64793 11.6057 3.74706 11.2097 2.0749 9.22732C0.40274 7.24489 0.501467 4.31879 2.30345 2.45358C4.10543 0.588372 7.02639 0.388833 9.06528 1.99166C11.1042 3.59449 11.5999 6.47998 10.2129 8.67139C10.1175 8.82209 10.1097 9.01224 10.1925 9.17021C10.2753 9.32819 10.4361 9.42999 10.6143 9.43727C10.7925 9.44455 10.9611 9.35621 11.0565 9.20551C12.6938 6.60995 12.1047 3.19682 9.69201 1.3003C7.27936 -0.596214 3.82364 -0.36262 1.68817 1.84133C-0.447297 4.04529 -0.571727 7.50666 1.39998 9.85826C3.37169 12.2099 6.80171 12.691 9.34431 10.9726H9.3493ZM8.99488 5.98082C8.99488 5.70513 8.77139 5.48164 8.49571 5.48164H6.99818C6.72249 5.48164 6.499 5.70513 6.499 5.98082C6.499 6.25651 6.72249 6.48 6.99818 6.48H8.49571C8.77139 6.48 8.99488 6.25651 8.99488 5.98082ZM6.49897 8.47671V6.97918C6.49897 6.70349 6.27548 6.48001 5.99979 6.48001C5.7241 6.48001 5.50061 6.70349 5.50061 6.97918V8.47671C5.50061 8.7524 5.7241 8.97589 5.99979 8.97589C6.27548 8.97589 6.49897 8.7524 6.49897 8.47671ZM6.49897 4.98248V3.48495C6.49897 3.20926 6.27548 2.98577 5.99979 2.98577C5.7241 2.98577 5.50061 3.20926 5.50061 3.48495V4.98248C5.50061 5.25816 5.7241 5.48165 5.99979 5.48165C6.27548 5.48165 6.49897 5.25816 6.49897 4.98248Z" fill="#3F4B5E"/>
</svg>
